<svg width="23" height="24" viewBox="0 0 23 24" fill="none" xmlns="http://www.w3.org/2000/svg">
<path d="M22.242 10.8632C22.4251 10.8632 22.6021 10.9295 22.7401 11.0499C22.8781 11.1702 22.9679 11.3365 22.9928 11.518L22.9999 11.6211V20.2105C23 21.1806 22.628 22.1138 21.9606 22.8179C21.2932 23.5219 20.3812 23.9432 19.4125 23.9949L19.2104 24H4.55778C3.58752 24.0001 2.65418 23.628 1.95011 22.9604C1.24603 22.2928 0.824852 21.3805 0.773363 20.4116L0.768311 20.2095V11.62C0.768624 11.4281 0.841749 11.2434 0.972923 11.1033C1.1041 10.9632 1.28355 10.8781 1.47505 10.8651C1.66655 10.8522 1.85583 10.9123 2.00468 11.0335C2.15354 11.1547 2.25087 11.3278 2.27703 11.518L2.2841 11.6211V20.2105C2.28403 20.7867 2.50267 21.3413 2.89584 21.7624C3.28901 22.1836 3.82739 22.4397 4.40216 22.4792L4.55778 22.4842H19.2104C19.7865 22.4843 20.3412 22.2656 20.7623 21.8725C21.1835 21.4793 21.4396 20.9409 21.479 20.3661L21.4841 20.2105V11.6211C21.4841 11.42 21.564 11.2273 21.7061 11.0851C21.8482 10.943 22.041 10.8632 22.242 10.8632ZM11.7467 0.0121264L11.8144 0.0030316L11.9013 0L11.9619 0.00404205L12.0569 0.0202105L12.1256 0.0394106L12.1862 0.0616422L12.257 0.0980209L12.3085 0.130358L12.3469 0.157642L12.4197 0.221305L18.8507 6.65229C18.9866 6.78736 19.0664 6.96891 19.0738 7.1604C19.0813 7.3519 19.016 7.53911 18.891 7.68436C18.7659 7.82962 18.5905 7.92211 18.4001 7.94324C18.2096 7.96437 18.0182 7.91256 17.8644 7.79823L17.7795 7.72446L12.642 2.58695V16.1684C12.642 16.3516 12.5757 16.5285 12.4553 16.6665C12.3349 16.8046 12.1686 16.8943 11.9872 16.9192L11.8841 16.9263C11.701 16.9263 11.524 16.86 11.386 16.7396C11.248 16.6192 11.1582 16.4529 11.1333 16.2715L11.1262 16.1684V2.58695L5.98869 7.72446C5.86037 7.85282 5.69024 7.93086 5.50924 7.9444C5.32825 7.95793 5.14841 7.90607 5.00242 7.79823L4.91753 7.72446C4.78918 7.59614 4.71114 7.42601 4.6976 7.24502C4.68406 7.06402 4.73593 6.88418 4.84376 6.73819L4.91753 6.65229L11.3485 0.222316L11.4597 0.131369L11.5557 0.0757895L11.6426 0.040421L11.7467 0.0131369V0.0121264Z" fill="black"/>
</svg>
