<svg id="Logo_with_Clear_Space" data-name="Logo with Clear Space" xmlns="http://www.w3.org/2000/svg" width="198" height="24" viewBox="0 0 374.1779 60.1118"><path id="Logo" d="M142.0688,17.6876h3.2766V36.0217l-14.968-20.47h-7.4752v2.1356h3.09l1.0231,1.4516V42.31H123.747V44.463h9.2361V42.31H129.731V22.8237l16.0708,22.121h2.2465V17.6876h3.2222V15.552h-9.2017Zm-34.8549,24.29h-3.7046v-11.26h3.7046c3.8543,0,6.3439,2.297,6.3439,5.8564,0,3.982-3.41,5.4038-6.3439,5.4038M103.5093,18.076h3.5464c1.8808,0,5.0317.6489,5.0317,4.9552a4.9594,4.9594,0,0,1-5.2677,5.1853h-3.31Zm8.3188,11.1234c2.7444-.7813,5.3059-2.9188,5.3059-6.3381,0-4.4424-3.2968-7.3093-8.4121-7.3093H95.4506v2.1356H98.67V42.3008h-3.219V44.463h14.0318c5.4136,0,9.03-3.08,9.03-7.67,0-4.54-3.261-6.8489-6.6842-7.5938m59.1613-11.5118h3.7l-6.213,10.25-6.6784-10.25h3.3544V15.552H153.4768v2.1356h2.605l8.7933,13.519V42.3008h-3.221V44.463H172.93V42.3008h-3.2643V30.9518l8.1313-13.2642h2.3418V15.552h-9.1493Zm136.9188,24.29h-9.5317v-24.29h3.22V15.552H290.3132v2.1356h3.2378V42.3008h-3.2378V44.463H310.427V38.1839h-2.5188Zm-24.7791,0H273.622v-24.29h3.228V15.552H265.5542v2.1356h3.2306V42.3008h-3.2306V44.463h20.1124V38.1839h-2.5375ZM214.55,36.3355l-9.736-20.7835H196.743v2.1356h3.26V42.3008h-3.26V44.463h9.2335V42.3008H202.718V22.2454l10.7837,23.039L223.74,22.753V42.3008h-3.2183V44.463h11.2771V42.3008h-3.2332V17.6876h3.2332V15.552h-7.67Zm113.19,5.8862c-5.3637,0-9.0987-5.0278-9.0987-12.2184,0-7.1751,3.7694-12.1763,9.1473-12.1763,5.2586,0,8.934,5.0012,8.934,12.1763,0,7.1906-3.69,12.2184-8.9826,12.2184m0-27.1935c-7.9356,0-14.402,6.7387-14.402,15.0231,0,8.2519,6.4664,14.9673,14.402,14.9673,7.88,0,14.282-6.7381,14.282-15.0153,0-8.2591-6.4016-14.9751-14.282-14.9751m37.24.5238v2.1356h3.2631V36.0217l-14.9524-20.47h-7.4973v2.1356h3.1029l1.0295,1.4516V42.3008h-3.26V44.463h9.23V42.3008h-3.267V22.8237l16.0682,22.121h2.2569V17.6876h3.2235V15.552ZM256.0114,41.9773H245.9979V31.0121h7.56v3.2942h2.5356V25.2718h-2.5356v3.2514h-7.56V18.076H255.62v3.66h2.4915V14.34H255.58V15.552H237.9483v2.1356h3.2125V42.3008h-3.2125V44.463H258.547V38.1839h-2.5356ZM0,60.1118S3.9042,47.4285,16.7132,33.7565a92.5427,92.5427,0,0,0,20.66,11.7471Zm40.0019-15.73a92.3191,92.3191,0,0,1-19.6548-14.413A91.6846,91.6846,0,0,1,40.0019,15.5521l36.87,14.4163ZM37.3736,14.6081a92.37,92.37,0,0,0-20.66,11.75C3.9042,12.691,0,0,0,0Z"/></svg>