<?xml version="1.0" encoding="UTF-8"?>
<svg width="24px" height="24px" viewBox="0 0 24 24" version="1.1" xmlns="http://www.w3.org/2000/svg" xmlns:xlink="http://www.w3.org/1999/xlink">
    <title>F8FC8040-73A2-4680-BC80-39EFB920914B</title>
    <g id="Page-1" stroke="none" stroke-width="1" fill="none" fill-rule="evenodd">
        <g id="Icons" transform="translate(-524.000000, -532.000000)" fill="#000000">
            <g id="icon/content/add_24px-copy-25" transform="translate(524.000000, 532.000000)">
                <g id="icon/content/add_24px-copy-2" transform="translate(2.000000, 4.000000)">
                    <path d="M18,0 L2,0 C0.9,0 0,0.9 0,2 L0,14 C0,15.1 0.9,16 2,16 L18,16 C19.1,16 20,15.1 20,14 L20,2 C20,0.9 19.1,0 18,0 Z M17.6,4.25 L11.06,8.34 C10.41,8.75 9.59,8.75 8.94,8.34 L2.4,4.25 C2.15,4.09 2,3.82 2,3.53 C2,2.86 2.73,2.46 3.3,2.81 L10,7 L16.7,2.81 C17.27,2.46 18,2.86 18,3.53 C18,3.82 17.85,4.09 17.6,4.25 Z" id="Shape"></path>
                </g>
            </g>
        </g>
    </g>
</svg>