<?xml version="1.0" encoding="UTF-8"?>
<svg width="48px" height="37px" viewBox="0 0 48 37" version="1.1" xmlns="http://www.w3.org/2000/svg" xmlns:xlink="http://www.w3.org/1999/xlink">
    <title>AA1D3298-DEBA-417B-9A19-1EEDD483B868</title>
    <g id="Page-1" stroke="none" stroke-width="1" fill="none" fill-rule="evenodd">
        <g id="Icons" transform="translate(-470.000000, -680.000000)" fill="#000000">
            <g id="icon/content/add_24px-copy-7" transform="translate(470.000000, 680.000000)">
                <path d="M29.6666667,15 C29.6666667,9.10895833 24.8910417,4.33333333 19,4.33333333 C13.1089583,4.33333333 8.33333333,9.10895833 8.33333333,15 C8.33333333,20.3240417 12.2339792,24.736875 17.3333333,25.5370833 L17.3333333,18.0833333 L14.625,18.0833333 L14.625,15 L17.3333333,15 L17.3333333,12.65 C17.3333333,9.97666667 18.9257917,8.5 21.3622917,8.5 C22.5293125,8.5 23.75,8.70833333 23.75,8.70833333 L23.75,11.3333333 L22.4049583,11.3333333 C21.0798958,11.3333333 20.6666667,12.1555625 20.6666667,12.9991042 L20.6666667,15 L23.625,15 L23.1520833,18.0833333 L20.6666667,18.0833333 L20.6666667,25.5370833 C25.7660208,24.736875 29.6666667,20.3240417 29.6666667,15" id="Fill-1"></path>
            </g>
        </g>
    </g>
</svg>