<?xml version="1.0" encoding="UTF-8"?>
<svg width="48px" height="42px" viewBox="0 0 48 42" version="1.1" xmlns="http://www.w3.org/2000/svg" xmlns:xlink="http://www.w3.org/1999/xlink">
    <title>BE2BBC85-2EFB-484B-834C-F56BBD878274</title>
    <g id="Page-1" stroke="none" stroke-width="1" fill="none" fill-rule="evenodd">
        <g id="Icons" transform="translate(-414.000000, -679.000000)" fill="#000000">
            <g id="icon/content/add_24px-copy-8" transform="translate(414.000000, 679.000000)">
                <g id="LI-Bug.svg.original" transform="translate(8.333333, 5.333333)">
                    <path d="M18.0101137,17.7734108 L14.9194238,17.7734108 L14.9194238,12.9331558 C14.9194238,11.7789511 14.8988192,10.2931338 13.3119431,10.2931338 C11.7022088,10.2931338 11.4559194,11.5506858 11.4559194,12.8491259 L11.4559194,17.7730888 L8.36522951,17.7730888 L8.36522951,7.819562 L11.3322918,7.819562 L11.3322918,9.17981723 L11.373823,9.17981723 C11.9788238,8.14536423 13.1037482,7.52752684 14.3012858,7.57197944 C17.4338288,7.57197944 18.0114014,9.63248442 18.0114014,12.3130726 L18.0101137,17.7734108 Z M4.87790108,6.45898483 C3.88734197,6.4591626 3.08419101,5.65628236 3.08401318,4.66570159 C3.08383541,3.67512082 3.88669809,2.8719523 4.87725721,2.87177445 C5.86781632,2.87159666 6.67096729,3.67447689 6.67114514,4.66505766 C6.67123051,5.14075133 6.48234795,5.59699576 6.14604946,5.93342236 C5.80975097,6.26984896 5.35358436,6.45889942 4.87790108,6.45898483 M6.42324603,17.7734108 L3.32933666,17.7734108 L3.32933666,7.819562 L6.42324603,7.819562 L6.42324603,17.7734108 Z M19.5509513,0.00155538205 L1.77626499,0.00155538205 C0.936196604,-0.00792499697 0.247289611,0.665002424 0.237037037,1.50508011 L0.237037037,19.3538825 C0.246938589,20.194365 0.935790143,20.8679587 1.77626499,20.8591395 L19.5509513,20.8591395 C20.3930889,20.8695788 21.0846381,20.196024 21.0962963,19.3538825 L21.0962963,1.50379229 C21.0842879,0.662055033 20.3926827,-0.0108339242 19.5509513,0.000132152999" id="Path_2520"></path>
                </g>
            </g>
        </g>
    </g>
</svg>