<svg width="22" height="22" viewBox="0 0 22 22" fill="none" xmlns="http://www.w3.org/2000/svg">
<path fill-rule="evenodd" clip-rule="evenodd" d="M18.745 18.7455H15.4853V13.6405C15.4853 12.4231 15.4636 10.856 13.7899 10.856C12.0922 10.856 11.8324 12.1824 11.8324 13.5518V18.7451H8.5727V8.24715H11.702V9.68182H11.7458C12.3839 8.59078 13.5704 7.93914 14.8334 7.98603C18.1372 7.98603 18.7464 10.1592 18.7464 12.9865L18.745 18.7455ZM4.89466 6.81215C3.84993 6.81234 3.00286 5.96554 3.00267 4.92078C3.00248 3.87601 3.84925 3.02891 4.89398 3.02872C5.93871 3.02853 6.78579 3.87533 6.78597 4.9201C6.78606 5.42181 6.58685 5.90301 6.23216 6.25784C5.87747 6.61267 5.39636 6.81206 4.89466 6.81215M6.52452 18.7455H3.26141V8.24715H6.52452V18.7455ZM20.3701 0.00150108H1.6234C0.737395 -0.00849788 0.0108133 0.701239 0 1.58727V20.4124C0.010443 21.2989 0.736966 22.0093 1.6234 21.9999H20.3701C21.2583 22.011 21.9877 21.3006 22 20.4124V1.58591C21.9873 0.69813 21.2579 -0.0115659 20.3701 0.000142821" fill="white"/>
</svg>
