<svg width="24" height="20" viewBox="0 0 24 20" fill="none" xmlns="http://www.w3.org/2000/svg">
<path fill-rule="evenodd" clip-rule="evenodd" d="M21.6 0.5H2.4C1.08 0.5 0 1.56875 0 2.875V17.125C0 18.4312 1.08 19.5 2.4 19.5H21.6C22.92 19.5 24 18.4312 24 17.125V2.875C24 1.56875 22.92 0.5 21.6 0.5ZM21.1184 5.54726L13.2704 10.4041C12.4904 10.891 11.5064 10.891 10.7264 10.4041L2.87844 5.54726C2.57844 5.35726 2.39844 5.03664 2.39844 4.69226C2.39844 3.89664 3.27444 3.42164 3.95844 3.83726L11.9984 8.81289L20.0384 3.83726C20.7224 3.42164 21.5984 3.89664 21.5984 4.69226C21.5984 5.03664 21.4184 5.35726 21.1184 5.54726Z" fill="white"/>
</svg>
