<svg width="24" height="22" viewBox="0 0 24 22" fill="none" xmlns="http://www.w3.org/2000/svg">
<path fill-rule="evenodd" clip-rule="evenodd" d="M20.4 6.11122H3.6C1.608 6.11122 0 7.749 0 9.77789V14.6668C0 16.0112 1.08 17.1112 2.4 17.1112H4.8V19.5557C4.8 20.9001 5.88 22.0001 7.2 22.0001H16.8C18.12 22.0001 19.2 20.9001 19.2 19.5557V17.1112H21.6C22.92 17.1112 24 16.0112 24 14.6668V9.77789C24 7.749 22.392 6.11122 20.4 6.11122ZM15.6031 19.5563H8.40312C7.74312 19.5563 7.20312 19.0063 7.20312 18.3341V13.4452H16.8031V18.3341C16.8031 19.0063 16.2631 19.5563 15.6031 19.5563ZM20.4031 10.999C19.7431 10.999 19.2031 10.449 19.2031 9.7768C19.2031 9.10458 19.7431 8.55458 20.4031 8.55458C21.0631 8.55458 21.6031 9.10458 21.6031 9.7768C21.6031 10.449 21.0631 10.999 20.4031 10.999ZM17.9969 -0.000106812H5.99687C5.33687 -0.000106812 4.79688 0.549893 4.79688 1.22212V3.66656C4.79688 4.33878 5.33687 4.88878 5.99687 4.88878H17.9969C18.6569 4.88878 19.1969 4.33878 19.1969 3.66656V1.22212C19.1969 0.549893 18.6569 -0.000106812 17.9969 -0.000106812Z" fill="white"/>
</svg>
