<?xml version="1.0" encoding="UTF-8"?>
<svg width="24px" height="24px" viewBox="0 0 24 24" version="1.1" xmlns="http://www.w3.org/2000/svg" xmlns:xlink="http://www.w3.org/1999/xlink">
    <title>04321BF6-DC81-4286-8860-EC42F8B33F48</title>
    <g id="Page-1" stroke="none" stroke-width="1" fill="none" fill-rule="evenodd">
        <g id="Icons" transform="translate(-470.000000, -532.000000)" fill="#000000">
            <g id="icon/navigation/expand_more_24px-copy-9" transform="translate(470.000000, 532.000000)">
                <g id="icon/navigation/expand_more_24px-copy-8" transform="translate(2.000000, 3.000000)">
                    <path d="M17,5 L3,5 C1.34,5 0,6.34 0,8 L0,12 C0,13.1 0.9,14 2,14 L4,14 L4,16 C4,17.1 4.9,18 6,18 L14,18 C15.1,18 16,17.1 16,16 L16,14 L18,14 C19.1,14 20,13.1 20,12 L20,8 C20,6.34 18.66,5 17,5 Z M13,16 L7,16 C6.45,16 6,15.55 6,15 L6,11 L14,11 L14,15 C14,15.55 13.55,16 13,16 Z M17,9 C16.45,9 16,8.55 16,8 C16,7.45 16.45,7 17,7 C17.55,7 18,7.45 18,8 C18,8.55 17.55,9 17,9 Z M15,0 L5,0 C4.45,0 4,0.45 4,1 L4,3 C4,3.55 4.45,4 5,4 L15,4 C15.55,4 16,3.55 16,3 L16,1 C16,0.45 15.55,0 15,0 Z" id="Shape"></path>
                </g>
            </g>
        </g>
    </g>
</svg>