<?xml version="1.0" encoding="UTF-8"?>
<svg width="27px" height="22px" viewBox="0 0 27 22" version="1.1" xmlns="http://www.w3.org/2000/svg" xmlns:xlink="http://www.w3.org/1999/xlink">
    <!-- Generator: Sketch 63.1 (92452) - https://sketch.com -->
    <title>Path</title>
    <desc>Created with Sketch.</desc>
    <g id="Symbols" stroke="none" stroke-width="1" fill="none" fill-rule="evenodd" opacity="0.8">
        <g id="Nav/Footer_Mobile" transform="translate(-127.000000, -428.000000)" fill="#000000">
            <g id="Group-Copy-2" transform="translate(15.000000, 420.000000)">
                <g id="icon/Social/Twitter" transform="translate(112.000000, 8.000000)">
                    <g id="Twitter_Logo_Blue" transform="translate(0.666667, 0.166667)">
                        <path d="M8.1984936,20.856 C18.0362688,20.856 23.4171168,12.8314482 23.4171168,5.87259309 C23.4171168,5.64466953 23.4171168,5.41777266 23.4014748,5.19190248 C24.4482701,4.44643933 25.3518815,3.52341931 26.07,2.46605998 C25.0938131,2.89192978 24.0582608,3.17121505 22.9979112,3.2945929 C24.114483,2.63647088 24.9501616,1.60135907 25.3494252,0.381894159 C24.2994898,0.995291178 23.1508338,1.4275828 21.9530256,1.66011409 C20.2950599,-0.0756015134 17.6605681,-0.500424009 15.526822,0.623862657 C13.3930758,1.74814932 12.2907276,4.14194052 12.8379108,6.46293562 C8.53729488,6.25066851 4.53041934,4.25076636 1.814472,0.960943186 C0.39482781,3.36712262 1.11995457,6.44533775 3.4704384,7.99063944 C2.61924372,7.96580147 1.78660773,7.73973172 1.0428,7.33150916 C1.0428,7.3530695 1.0428,7.37565652 1.0428,7.39824354 C1.04349673,9.90498473 2.83824245,12.064039 5.333922,12.560404 C4.54647201,12.7718391 3.72027304,12.8027466 2.9187972,12.6507521 C3.6195045,14.7959263 5.62754795,16.2654799 7.9158948,16.3077958 C6.0218937,17.7733154 3.68218886,18.5688875 1.2732588,18.5664976 C0.847695842,18.5656933 0.422546799,18.5403249 0,18.4905231 C2.44602917,20.0359645 5.2921197,20.8557094 8.1984936,20.8518933" id="Path"></path>
                    </g>
                </g>
            </g>
        </g>
    </g>
</svg>