<?xml version="1.0" encoding="UTF-8"?>
<svg width="23px" height="19px" viewBox="0 0 23 19" version="1.1" xmlns="http://www.w3.org/2000/svg" xmlns:xlink="http://www.w3.org/1999/xlink">
    <title>2A60B6F1-64F9-4FF8-9161-92C418562698</title>
    <defs>
        <filter id="filter-1">
            <feColorMatrix in="SourceGraphic" type="matrix" values="0 0 0 0 0.000000 0 0 0 0 0.000000 0 0 0 0 0.000000 0 0 0 1.000000 0"></feColorMatrix>
        </filter>
    </defs>
    <g id="Page-1" stroke="none" stroke-width="1" fill="none" fill-rule="evenodd">
        <g id="Icons" transform="translate(-534.000000, -686.000000)">
            <g id="icon/content/add_24px-copy-9" transform="translate(534.000000, 686.000000)">
                <g filter="url(#filter-1)" id="Twitter_Logo_Blue">
                    <g transform="translate(0.333333, 0.333333)">
                        <path d="M6.70890667,17.0666667 C14.7592533,17.0666667 19.1624533,10.5000983 19.1624533,4.80559976 C19.1624533,4.61908772 19.1624533,4.43341581 19.1496533,4.24858405 C20.0062561,3.63856434 20.74569,2.88324813 21.3333333,2.01800075 C20.5345101,2.36649413 19.6871076,2.59503597 18.8194133,2.69599726 C19.7331149,2.15744964 20.4169587,1.31040763 20.74368,0.312507687 C19.8845077,0.814456405 18.9445513,1.16820482 17.9643733,1.35848742 C16.607644,-0.0618654502 14.4518139,-0.40950181 12.7057487,0.510512851 C10.9596836,1.43052751 10.0576213,3.38939002 10.5053867,5.28868278 C6.98615103,5.11498254 3.707286,3.47844326 1.4848,0.78634911 C0.323091419,2.75534903 0.916469661,5.27428227 2.83989333,6.5388176 C2.14335249,6.51849244 1.4619984,6.33349738 0.853333333,5.99944491 C0.853333333,6.01708794 0.853333333,6.03557112 0.853333333,6.0540543 C0.853903473,8.10534488 2.32256127,9.87211992 4.3648,10.2783002 C3.72042205,10.4513195 3.04433543,10.4766115 2.38848,10.3522329 C2.96187557,12.1076497 4.60507696,13.3101996 6.47765333,13.3448271 C4.9277739,14.544076 3.01317078,15.1951004 1.04192,15.1931447 C0.693677712,15.1924865 0.345774136,15.1717273 0,15.130974 C2.00160934,16.3956237 4.33059277,17.0664288 6.70890667,17.0633061" id="Path" fill="#000000"></path>
                    </g>
                </g>
            </g>
        </g>
    </g>
</svg>