<svg width="22" height="18" viewBox="0 0 22 18" fill="none" xmlns="http://www.w3.org/2000/svg">
<path fill-rule="evenodd" clip-rule="evenodd" d="M6.91856 17.5C15.2205 17.5 19.7613 10.9591 19.7613 5.28683C19.7613 5.10104 19.7613 4.9161 19.7481 4.73199C20.6315 4.12435 21.394 3.37199 22 2.51012C21.1762 2.85725 20.3023 3.0849 19.4075 3.18547C20.3498 2.64902 21.055 1.80529 21.3919 0.811287C20.5059 1.31127 19.5366 1.66364 18.5258 1.85318C17.1266 0.438376 14.9034 0.0920978 13.1028 1.00852C11.3022 1.92494 10.3719 3.87615 10.8337 5.76802C7.20447 5.595 3.82314 3.96486 1.5312 1.28328C0.333188 3.24459 0.945109 5.75368 2.92864 7.01328C2.21033 6.99303 1.50769 6.80876 0.88 6.47601C0.88 6.49358 0.88 6.51199 0.88 6.53041C0.880588 8.57368 2.39514 10.3336 4.5012 10.7382C3.83669 10.9105 3.13947 10.9357 2.46312 10.8118C3.05443 12.5604 4.74899 13.7582 6.68008 13.7927C5.08177 14.9873 3.10733 15.6357 1.07448 15.6338C0.715355 15.6331 0.35658 15.6125 0 15.5719C2.06416 16.8316 4.46592 17.4998 6.91856 17.4967" fill="white"/>
</svg>
